<svg width="18" height="9" viewBox="0 0 18 9" fill="none" xmlns="http://www.w3.org/2000/svg">
<path fill-rule="evenodd" clip-rule="evenodd" d="M0.203368 0.188815C0.267669 0.128963 0.344058 0.0814771 0.428156 0.0490771C0.512255 0.0166771 0.602412 0 0.693464 0C0.784516 0 0.874673 0.0166771 0.958772 0.0490771C1.04287 0.0814771 1.11926 0.128963 1.18356 0.188815L9.00018 7.44739L16.8168 0.188815C16.8812 0.12906 16.9576 0.0816596 17.0417 0.0493204C17.1258 0.0169813 17.2159 0.000336493 17.3069 0.000336493C17.3979 0.000336493 17.488 0.0169813 17.5721 0.0493204C17.6562 0.0816596 17.7326 0.12906 17.797 0.188815C17.8614 0.24857 17.9124 0.319509 17.9472 0.397583C17.9821 0.475656 18 0.559335 18 0.643842C18 0.728348 17.9821 0.812027 17.9472 0.890101C17.9124 0.968174 17.8614 1.03911 17.797 1.09887L9.49028 8.81118C9.42598 8.87104 9.34959 8.91852 9.26549 8.95092C9.18139 8.98332 9.09123 9 9.00018 9C8.90913 9 8.81897 8.98332 8.73487 8.95092C8.65078 8.91852 8.57439 8.87104 8.51009 8.81118L0.203368 1.09887C0.138903 1.03917 0.0877574 0.968246 0.0528602 0.890165C0.0179631 0.812084 0 0.728378 0 0.643842C0 0.559305 0.0179631 0.475599 0.0528602 0.397518C0.0877574 0.319437 0.138903 0.248516 0.203368 0.188815Z" fill="#333333"/>
</svg>
