<svg width="18" height="9" viewBox="0 0 18 9" fill="none" xmlns="http://www.w3.org/2000/svg">
<path fill-rule="evenodd" clip-rule="evenodd" d="M17.7966 8.81119C17.7323 8.87104 17.6559 8.91852 17.5718 8.95092C17.4877 8.98332 17.3976 9 17.3065 9C17.2155 9 17.1253 8.98332 17.0412 8.95092C16.9571 8.91852 16.8807 8.87104 16.8164 8.81119L8.99982 1.55261L1.1832 8.81118C1.11884 8.87094 1.04243 8.91834 0.95834 8.95068C0.874249 8.98302 0.784121 8.99966 0.6931 8.99966C0.602081 8.99966 0.511953 8.98302 0.427862 8.95068C0.343771 8.91834 0.267365 8.87094 0.203003 8.81118C0.138643 8.75143 0.0875912 8.68049 0.0527592 8.60242C0.0179272 8.52434 4.88987e-08 8.44066 5.62864e-08 8.35616C6.36742e-08 8.27165 0.0179272 8.18797 0.0527592 8.1099C0.0875913 8.03182 0.138643 7.96088 0.203003 7.90113L8.50972 0.188814C8.57402 0.128963 8.65041 0.0814763 8.73451 0.0490762C8.81861 0.0166771 8.90877 -7.94781e-07 8.99982 -7.86821e-07C9.09087 -7.78861e-07 9.18103 0.0166771 9.26513 0.0490763C9.34922 0.0814764 9.42561 0.128963 9.48992 0.188814L17.7966 7.90113C17.8611 7.96083 17.9122 8.03175 17.9471 8.10983C17.982 8.18792 18 8.27162 18 8.35616C18 8.44069 17.982 8.5244 17.9471 8.60248C17.9122 8.68056 17.8611 8.75148 17.7966 8.81119Z" fill="#333333"/>
</svg>
