<svg width="23"  viewBox="0 0 30 30" fill="none" xmlns="http://www.w3.org/2000/svg">
<path d="M17.909 18.7961C18.4742 19.3588 18.4762 20.2734 17.9133 20.8388C17.3504 21.404 16.436 21.406 15.8706 20.8431L10.8354 15.8295C10.5632 15.5586 10.4102 15.1902 10.4102 14.806C10.4102 14.4218 10.5632 14.0535 10.8354 13.7825L15.8706 8.76888C16.436 8.20602 17.3504 8.208 17.9133 8.77328C18.4762 9.33859 18.4742 10.2531 17.909 10.816L13.9018 14.806L17.909 18.7961Z" fill="#404040"/>
<path fill-rule="evenodd" clip-rule="evenodd" d="M29.6106 14.8053C29.6106 22.9827 22.981 29.6106 14.8053 29.6106C6.62958 29.6106 0 22.9827 0 14.8053C0 6.62948 6.62948 0 14.8053 0C22.9811 0 29.6106 6.62948 29.6106 14.8053ZM14.8053 26.7217C21.3858 26.7217 26.7217 21.3869 26.7217 14.8053C26.7217 8.22494 21.3856 2.88884 14.8053 2.88884C8.22494 2.88884 2.88884 8.22494 2.88884 14.8053C2.88884 21.3869 8.22482 26.7217 14.8053 26.7217Z" fill="#404040"/>
</svg>
