<svg width="23" viewBox="0 0 23 23" fill="none" xmlns="http://www.w3.org/2000/svg">
<path d="M8.84737 14.2125C8.41999 14.638 8.41846 15.3296 8.84409 15.7571C9.26972 16.1845 9.96118 16.186 10.3887 15.7604L14.196 11.9694C14.4019 11.7645 14.5176 11.486 14.5176 11.1954C14.5176 10.9049 14.4019 10.6264 14.196 10.4215L10.3887 6.63048C9.96118 6.20488 9.26972 6.20638 8.84409 6.63382C8.41846 7.06127 8.41999 7.7528 8.84737 8.1784L11.8774 11.1954L8.84737 14.2125Z" fill="#404040"/>
<path fill-rule="evenodd" clip-rule="evenodd" d="M22.3899 11.1949C22.3899 17.3783 17.377 22.3899 11.1949 22.3899C5.01292 22.3899 0 17.3783 0 11.1949C0 5.01284 5.01284 0 11.1949 0C17.3771 0 22.3899 5.01284 22.3899 11.1949ZM11.1949 20.2055C16.1707 20.2055 20.2055 16.1716 20.2055 11.1949C20.2055 6.21924 16.1706 2.18438 11.1949 2.18438C6.21924 2.18438 2.18438 6.21924 2.18438 11.1949C2.18438 16.1716 6.21916 20.2055 11.1949 20.2055Z" fill="#404040"/>
</svg>
