<svg width="24" height="16" viewBox="0 0 24 16" fill="none" xmlns="http://www.w3.org/2000/svg">
<path d="M23.2727 8C23.2727 8 18.9091 0 11.6364 0C4.36364 0 0 8 0 8C0 8 4.36364 16 11.6364 16C18.9091 16 23.2727 8 23.2727 8ZM1.70618 8C2.40841 6.93031 3.21741 5.93466 4.12073 5.02836C5.99273 3.15345 8.55273 1.45455 11.6364 1.45455C14.72 1.45455 17.2785 3.15345 19.1535 5.02836C20.0568 5.93466 20.8658 6.93031 21.568 8C21.4846 8.12606 21.3901 8.2657 21.2844 8.41891C20.7971 9.11709 20.0771 10.048 19.1535 10.9716C17.2785 12.8465 14.7185 14.5455 11.6364 14.5455C8.55418 14.5455 5.99418 12.8465 4.11927 10.9716C3.21595 10.0653 2.40841 9.06969 1.70618 8Z" fill="#BDBDBD"/>
<path d="M11.6363 4.36373C10.6719 4.36373 9.74697 4.74684 9.06502 5.42879C8.38307 6.11074 7.99996 7.03566 7.99996 8.00009C7.99996 8.96451 8.38307 9.88944 9.06502 10.5714C9.74697 11.2533 10.6719 11.6365 11.6363 11.6365C12.6007 11.6365 13.5257 11.2533 14.2076 10.5714C14.8896 9.88944 15.2727 8.96451 15.2727 8.00009C15.2727 7.03566 14.8896 6.11074 14.2076 5.42879C13.5257 4.74684 12.6007 4.36373 11.6363 4.36373ZM6.54541 8.00009C6.54541 6.6499 7.08177 5.355 8.0365 4.40027C8.99123 3.44554 10.2861 2.90918 11.6363 2.90918C12.9865 2.90918 14.2814 3.44554 15.2361 4.40027C16.1909 5.355 16.7272 6.6499 16.7272 8.00009C16.7272 9.35028 16.1909 10.6452 15.2361 11.5999C14.2814 12.5546 12.9865 13.091 11.6363 13.091C10.2861 13.091 8.99123 12.5546 8.0365 11.5999C7.08177 10.6452 6.54541 9.35028 6.54541 8.00009Z" fill="#BDBDBD"/>
</svg>
